# xmcd
#
# Track frame offsets: 
#        150
#        17249
#        32703
#        49470
#        66039
#        84966
#        99209
#        114383
#        135264
#        153441
#        168097
#
# Disc length: 2735 seconds
#
# Revision: 0
# Processed by: cddbd v1.5.2PL0 Copyright (c) Steve Scherf et al.
# Submitted via: ExactAudioCopy v1.1
#
DISCID=7c0aad0b
DTITLE=Vintage Trouble - The Bomb Shelter Sessions
DYEAR=2011
DGENRE=Blues
TTITLE0=Blues Hand Me Down
TTITLE1=Still And Always Will
TTITLE2=Nancy Lee
TTITLE3=Gracefully
TTITLE4=You Better Believe It
TTITLE5=Pelvis Pusher
TTITLE6=Not Alright By Me
TTITLE7=Nobody Told Me
TTITLE8=Jezzebella
TTITLE9=Total Strangers (Round 2)
TTITLE10=Run Outta You
EXTD=
EXTT0=
EXTT1=
EXTT2=
EXTT3=
EXTT4=
EXTT5=
EXTT6=
EXTT7=
EXTT8=
EXTT9=
EXTT10=
PLAYORDER=
